<?xml version="1.0" encoding="utf-8"?>
<!-- Generator: Adobe Illustrator 26.2.1, SVG Export Plug-In . SVG Version: 6.00 Build 0)  -->
<svg version="1.1" id="Lag_1" xmlns="http://www.w3.org/2000/svg" xmlns:xlink="http://www.w3.org/1999/xlink" x="0px" y="0px"
	 viewBox="0 0 600 200" style="enable-background:new 0 0 600 200;" xml:space="preserve">
<style type="text/css">
	.st0{fill:none;stroke:#CEB9B4;stroke-width:3;stroke-miterlimit:10;}
	.st1{fill:#CEB9B4;}
</style>
<g id="Layer_8">
	<line class="st0" x1="7.8" y1="27.5" x2="538.3" y2="27.5"/>
	<g>
		<path class="st1" d="M134.2,124c0.7,1.2,1,2.6,0.9,4c0.1,2.7-0.7,5.4-2.3,7.6c-4.6,5.4-9,9.3-13.2,11.5
			c-4.8,2.3-10.1,3.5-15.4,3.3c-4,0-7.9-0.5-11.7-1.6c-4.4-1.4-8.8-2.9-13-4.8c-4.4-1.9-8.9-3.6-13.5-5
			c-4.1,7.6-10.4,11.3-18.7,11.3c-4.5,0-8.2-1-10.9-3.1c-2.6-1.8-4.1-4.8-4.1-8c0-4,1.9-7.3,5.7-9.9c3.8-2.6,8.9-4,15.2-4h1.6
			l2.2-35.5c0.5-8.1,1.9-14.8,4.4-20.1c2.4-5.2,5.8-9.8,10.1-13.5c3.8-3.3,8.1-5.8,12.8-7.4c4.9-1.7,10.1-2.5,15.2-2.5
			c8.8,0,15.5,2.3,20.2,6.8S127,63.7,127,71c0,5-0.9,9-2.7,12s-4.3,4.6-7.4,4.6c-1.9,0.1-3.8-0.5-5.4-1.6c-1.4-1.2-2.1-2.9-2-4.7
			c0.1-1.3,0.2-2.7,0.5-4c0.5-2,0.7-4,0.7-6.1c0.1-3-0.9-5.9-3-8.1c-2-2-5-3-9.1-3c-7.1,0-12.7,2.3-16.6,7s-6.4,12-7.4,22l-2.8,27.7
			c-0.3,3.4-0.9,6.8-1.6,10.1c5.2,0.9,11.7,2.3,19.5,4.3c4.6,1.1,8,2,10.5,2.4c2.1,0.5,4.3,0.7,6.5,0.7c4.2,0.1,8.3-0.7,12.1-2.4
			c3.7-1.8,7-4.4,9.6-7.6c0.8-1,2-1.7,3.3-1.7C132.8,122.5,133.7,123.1,134.2,124z"/>
		<path class="st1" d="M128.7,144.7c-2.4-3.7-3.6-8.7-3.6-14.9c0.1-4.7,0.6-9.4,1.4-14.1c0.9-5.4,2.1-10.7,3.6-16
			c0.7-2.6,1.7-4.4,2.9-5.4c1.2-1,3.2-1.5,5.9-1.5c4.1,0,6.2,1.4,6.2,4.1c0,2-0.8,6.8-2.3,14.2c-2,8.9-2.9,15-2.9,18.2
			c-0.1,1.9,0.3,3.8,1,5.6c0.6,1.3,1.9,2.1,3.3,2c1.5,0,3.3-1,5.5-3c3.1-3,6-6.3,8.8-9.6c0.8-1,2-1.7,3.3-1.7c1,0,2,0.5,2.5,1.5
			c0.7,1.2,1,2.6,0.9,4c0,3.3-0.8,5.8-2.3,7.6c-8.1,9.8-15.6,14.8-22.6,14.8C135,150.4,131.1,148.5,128.7,144.7z M133.5,82.5
			c-1.8-1.7-2.7-4.2-2.5-6.6c0-2.8,1.2-5.4,3.4-7.1c2.3-1.9,5.3-3,8.4-2.9c2.6-0.1,5.2,0.6,7.3,2.2c1.9,1.5,2.9,3.8,2.8,6.2
			c0.1,2.9-1,5.8-3.2,7.8c-2.3,2-5.3,3-8.4,2.9C137.8,84.9,135.2,84.1,133.5,82.5L133.5,82.5z"/>
		<path class="st1" d="M218,112.6c1.1-0.1,2.1,0.4,2.8,1.2c0.7,0.9,1.1,2.1,1,3.3c0.1,2.1-0.4,4.1-1.5,5.9c-1.1,1.5-2.6,2.6-4.4,3.1
			c-3.9,1.2-7.9,1.9-12,1.8c-3.4,0-6.8-0.5-10.1-1.5c-2.4,3.8-5,7.8-7.8,11.8c-3.2,4.6-6,7.8-8.4,9.5c-2.3,1.7-5.1,2.6-8,2.6
			c-3.1,0.1-6.1-1.4-7.9-3.9c-1.9-2.6-3.1-6.7-3.6-12.3c-1-11.4-1.5-21.3-1.5-29.9V100c0.1-2.7,0.8-4.5,2.2-5.6
			c1.4-1,3.5-1.6,6.2-1.6c1.7-0.1,3.4,0.4,4.7,1.4c1,0.9,1.5,2.5,1.5,4.7c0,9.3,0.6,21.5,1.7,36.5c4.9-7.2,8.5-13,11-17.3
			c-1.3-2.6-1.9-5.5-1.8-8.4c0-2.8,0.6-5.5,1.8-8c1.1-2.5,2.8-4.7,5-6.3c2.1-1.6,4.6-2.5,7.2-2.4c2.2-0.1,4.3,0.8,5.7,2.5
			c1.5,1.7,2.2,4.1,2.2,7.2c-0.2,4.3-1.1,8.6-2.9,12.6c4.1-0.3,8.3-0.9,12.3-1.8l3.3-0.6C217.2,112.6,217.6,112.6,218,112.6z"/>
		<path class="st1" d="M224.9,147.4c-1.9-2.1-2.9-4.9-2.8-7.7c-0.2-3.2,1-6.4,3.1-8.8c2.1-2.2,5-3.3,8.7-3.3c3.6,0,6.3,0.9,8.1,2.6
			c1.8,1.7,2.7,4.3,2.7,7.7c0.2,3.3-1,6.5-3.2,9c-2.3,2.3-5.4,3.5-8.7,3.4C229.4,150.4,226.7,149.4,224.9,147.4z M229.2,112.7
			c-1.9-2.1-2.9-4.9-2.7-7.7c-0.2-3.2,1-6.4,3.1-8.8c2.1-2.2,5-3.3,8.7-3.3c3.6,0,6.3,0.9,8.1,2.6s2.7,4.3,2.7,7.7
			c0.2,3.3-1,6.5-3.2,9c-2.3,2.3-5.4,3.5-8.7,3.4C233.7,115.6,231,114.6,229.2,112.7z"/>
	</g>
</g>
</svg>
